<?xml version="1.0" encoding="utf-8"?>
<!-- Generator: Adobe Illustrator 19.0.0, SVG Export Plug-In . SVG Version: 6.00 Build 0)  -->
<svg version="1.1" id="Layer_1" xmlns="http://www.w3.org/2000/svg" xmlns:xlink="http://www.w3.org/1999/xlink" x="0px" y="0px"
	 viewBox="0 0 50 50" style="enable-background:new 0 0 50 50;" xml:space="preserve">
<g id="XMLID_2_">
	<g id="XMLID_1_">
		<path id="XMLID_84_" d="M24.9,1.8c2.4-0.9,5.5,1,5.3,3.7c0.2,3-3.5,5.1-6,3.5C21.3,7.6,21.8,2.7,24.9,1.8"/>
		<path id="XMLID_83_" d="M7.5,5C7.4,3.2,10,2.2,11.1,3.5c1.6,1.5,3,3.3,4.7,4.8c1.9,0.8,3.8,1.5,5.8,2
			c3.2,0.2,6.4,0,9.6,0.1c1.3,0,2.2,1.2,3,2.1c2.4,3,4.9,5.9,7.4,8.9c0.6,0.8,1.4,2.2,0.3,3c-0.8,0.9-2.4,0.6-3.1-0.3
			c-2.5-2.9-4.9-5.8-7.4-8.7c0.1,4.6-0.1,9.3,0.1,13.9c2.4,5.3,5,10.5,7.4,15.8c0.6,1.2-0.1,2.7-1.4,3c-1.3,0.6-2.5-0.5-3.1-1.6
			c-2.6-5.4-5-10.9-7.7-16.3c-0.2,0-0.7,0-0.9,0c-2.2,4.5-4.2,9.2-6.4,13.8c-0.7,1.3-1.1,2.8-2.2,3.9c-1.3,1.2-3.6,0-3.7-1.6
			c0.1-1.2,0.6-2.3,1.1-3.4c2-4.2,4-8.5,5.9-12.8c0.3-0.6,0.5-1.3,0.4-2c0-4.5,0-8.9,0-13.4c-2.2-0.8-4.3-1.6-6.5-2.4
			c-1.7-0.6-2.6-2.2-3.9-3.4C9.6,7.6,8.2,6.6,7.5,5"/>
	</g>
	<g style="opacity: 0.3">
		<path id="XMLID_82_" d="M24.9,39.3c2.4-0.2,5.5,0.2,5.3,0.7c0.2,0.6-3.5,1-6,0.7C21.3,40.5,21.8,39.5,24.9,39.3"/>
		<path id="XMLID_81_" d="M7.5,39.9c-0.1-0.3,2.4-0.6,3.6-0.3c1.6,0.3,3,0.6,4.7,0.9c1.9,0.2,3.8,0.3,5.8,0.4
			c3.2,0,6.4,0,9.6,0c1.3,0,2.2,0.2,3,0.4c2.4,0.6,4.9,1.1,7.4,1.7c0.6,0.2,1.4,0.4,0.3,0.6c-0.8,0.2-2.4,0.1-3.1-0.1
			c-2.5-0.6-4.9-1.1-7.4-1.7c0.1,0.9-0.1,1.8,0.1,2.7c2.4,1,5,2,7.4,3.1c0.6,0.2-0.1,0.5-1.4,0.6c-1.3,0.1-2.5-0.1-3.1-0.3
			c-2.6-1.1-5-2.1-7.7-3.2c-0.2,0-0.7,0-0.9,0c-2.2,0.9-4.2,1.8-6.4,2.7c-0.7,0.3-1.1,0.6-2.2,0.8c-1.3,0.2-3.6,0-3.7-0.3
			c0.1-0.2,0.6-0.5,1.1-0.7c2-0.8,4-1.7,5.9-2.5c0.3-0.1,0.5-0.3,0.4-0.4c0-0.9,0-1.7,0-2.6c-2.2-0.2-4.3-0.3-6.5-0.5
			c-1.7-0.1-2.6-0.4-3.9-0.7C9.6,40.5,8.2,40.2,7.5,39.9"/>
	</g>
</g>
</svg>
