<?xml version="1.0" encoding="utf-8"?>
<!-- Generator: Adobe Illustrator 19.0.0, SVG Export Plug-In . SVG Version: 6.00 Build 0)  -->
<svg version="1.1" id="Layer_1" xmlns="http://www.w3.org/2000/svg" xmlns:xlink="http://www.w3.org/1999/xlink" x="0px" y="0px"
	 viewBox="0 0 52 52" style="enable-background:new 0 0 52 52;" xml:space="preserve">
<g id="XMLID_1_">
	<g style="opacity: 0.3">
		<path id="XMLID_83_" d="M26.1,41.4c-2.6-0.2-6,0.2-5.7,0.8c-0.2,0.6,3.8,1.1,6.5,0.7C30,42.6,29.4,41.6,26.1,41.4"/>
		<path id="XMLID_82_" d="M44.8,42.1c0.1-0.4-2.6-0.6-3.8-0.3c-1.7,0.3-3.3,0.7-5,1c-2,0.2-4.1,0.3-6.3,0.4
			c-3.4,0-6.9,0-10.3,0c-1.4,0-2.4,0.2-3.2,0.4c-2.6,0.6-5.3,1.2-7.9,1.9c-0.7,0.2-1.5,0.5-0.4,0.6c0.9,0.2,2.6,0.1,3.4-0.1
			c2.6-0.6,5.2-1.2,7.9-1.8c-0.1,1,0.1,1.9-0.1,2.9c-2.5,1.1-5.4,2.2-7.9,3.3c-0.7,0.3,0.1,0.6,1.5,0.6c1.3,0.1,2.7-0.1,3.3-0.3
			c2.8-1.1,5.4-2.3,8.3-3.4c0.2,0,0.7,0,1,0c2.4,1,4.6,1.9,6.9,2.9c0.7,0.3,1.2,0.6,2.3,0.8c1.4,0.2,3.9,0,4-0.3
			c-0.1-0.3-0.6-0.5-1.2-0.7c-2.1-0.9-4.3-1.8-6.4-2.7c-0.3-0.1-0.5-0.3-0.5-0.4c0-0.9,0-1.9,0-2.8c2.3-0.2,4.6-0.3,6.9-0.5
			c1.8-0.1,2.8-0.5,4.1-0.7C42.5,42.6,44,42.4,44.8,42.1"/>
	</g>
	<g>
		<path id="XMLID_81_" d="M26.1,1.1c-2.6-0.9-6,1.1-5.7,4c-0.2,3.2,3.8,5.5,6.5,3.8C30,7.3,29.4,2.1,26.1,1.1"/>
		<path id="XMLID_80_" d="M44.8,4.5c0.1-1.9-2.6-3-3.8-1.6c-1.7,1.7-3.3,3.6-5,5.2c-2,0.9-4.1,1.6-6.3,2.2
			c-3.4,0.2-6.9,0-10.3,0.1c-1.4,0-2.4,1.2-3.2,2.2c-2.6,3.2-5.3,6.3-7.9,9.5c-0.7,0.9-1.5,2.4-0.4,3.2c0.9,1,2.6,0.7,3.4-0.3
			c2.6-3.1,5.2-6.3,7.9-9.3c-0.1,5,0.1,10-0.1,14.9c-2.5,5.7-5.4,11.3-7.9,17c-0.7,1.3,0.1,2.9,1.5,3.2c1.3,0.6,2.7-0.5,3.3-1.7
			c2.8-5.8,5.4-11.7,8.3-17.5c0.2,0,0.7,0,1,0c2.4,4.9,4.6,9.9,6.9,14.8c0.7,1.4,1.2,3,2.3,4.2c1.4,1.3,3.9,0,4-1.8
			c-0.1-1.3-0.6-2.5-1.2-3.6c-2.1-4.6-4.3-9.1-6.4-13.7c-0.3-0.7-0.5-1.4-0.5-2.1c0-4.8,0-9.6,0-14.4c2.3-0.9,4.6-1.7,6.9-2.6
			C39,11.8,40,10,41.3,8.7C42.5,7.4,44,6.2,44.8,4.5"/>
	</g>
</g>
</svg>
