<?xml version="1.0" encoding="utf-8"?>
<!-- Generator: Adobe Illustrator 19.0.0, SVG Export Plug-In . SVG Version: 6.00 Build 0)  -->
<svg version="1.1" id="Layer_1" xmlns="http://www.w3.org/2000/svg" xmlns:xlink="http://www.w3.org/1999/xlink" x="0px" y="0px"
	 viewBox="0 0 92 92" style="enable-background:new 0 0 92 92;" xml:space="preserve">
<style type="text/css">
	.st0{fill:#010101;}
</style>
<g id="XMLID_118_">
	<path id="XMLID_120_" class="st0" d="M48.6,3.3c3.8,0,6.9,3.1,6.9,6.9s-3.1,6.9-6.9,6.9c-3.8,0-6.9-3.1-6.9-6.9S44.8,3.3,48.6,3.3z
		"/>
	<path id="XMLID_119_" class="st0" d="M64.8,87.5c-1.8,0-3.7-1-4.9-3.2c-5.3-10.6-10-20.8-15.1-31.4l-1.4,1.4L32.2,84.4
		c-1.3,2.6-3.4,4.3-5.4,4.3l0,0c-2.7,0-5.1-2.6-5.1-5.8c0-0.8,0.1-1.9,0.5-2.7c0.9-2.4,1.8-5,2.6-7.3C28.7,62.2,32.2,52,36.3,41
		L35,36.2l-4.4,3.5v5.9c0,2.4-2.6,3.5-4.5,3.5s-4.5-1.1-4.5-3.5v-8.2l-0.1-0.1c0.2-1.5,0.7-1.9,1.2-2.3L39,18.4
		c1.2-1.1,2-1.7,3.2-1.8c0.8,0,1.5,0.3,2.6,0.8c2,1.1,3,1.6,5,3h0.1L62.6,35l0,0l5.4,6.3c0.9,0.9,1.3,1.9,1.3,3
		c0,2.4-2.1,4.5-4.6,4.5c-0.9,0-1.9-0.3-2.8-1.1L56,41.6l-3.2,3.2l16.8,34.3c0.5,1,0.8,2,0.8,3C70.2,85.2,67.7,87.5,64.8,87.5z"/>
</g>
</svg>
