<?xml version="1.0" encoding="utf-8"?>
<!-- Generator: Adobe Illustrator 19.0.0, SVG Export Plug-In . SVG Version: 6.00 Build 0)  -->
<svg version="1.1" id="Layer_1" xmlns="http://www.w3.org/2000/svg" xmlns:xlink="http://www.w3.org/1999/xlink" x="0px" y="0px"
	 viewBox="0 0 58 58" style="enable-background:new 0 0 58 58;" xml:space="preserve">
<g id="XMLID_72_">
	<g id="XMLID_2_" style="opacity: 0.3">
		<path id="XMLID_4_" d="M42.3,46.1c0.1,0-5.8,1.7-8.8,2.5c-2.7,0-5.4,0-8.1,0c-3.2-0.8-6.2-1.6-9.5-2.4
			c-0.4-0.1-0.7-0.2-1.3-0.2c-1.1-0.2-3,0-3.3,0.1c-0.3,0.1-0.3,0.2-0.1,0.3c6.1,1.7,8.4,2.3,12.4,3.4c0.1,0.7,0.1,1.4-0.1,2.1
			c-1.8,1.3-5.3,2.4-6.6,3.7c-0.3,0.5,3.6,0.6,4.5,0.2c2.3-1,4.6-2,6.9-3c0.6,0,1.8,0,2.4,0c2.2,1,4.3,2,6.9,3
			c0.8,0.3,2.3,0.4,3.9,0.3c1.1-0.1,1.2-0.5,0.6-0.7c-1.9-0.9-4.1-2.1-5.9-3c-0.3-0.2-0.2-0.1-0.4-0.3c-0.1-0.8,0-1.6-0.1-2.1
			c3.8-1.1,7.4-2.2,11.1-3.4c0.9-0.2,0.4-0.4-0.1-0.6c-0.1,0-0.2,0-0.2,0C44.3,45.6,42.9,45.9,42.3,46.1"/>
		<path id="XMLID_3_" d="M28.8,48.5c2.9,0.1,5.8-0.4,5.2-0.9c0-0.5-3.5-0.9-6-0.7C23.5,47.1,24.3,48.4,28.8,48.5"/>
	</g>
	<g id="XMLID_29_">
		<path id="XMLID_1_" d="M41.9,3.4c0.1,0.1-5.8,8.8-8.8,13.1c-2.7,0-5.4,0-8.1,0c-3.2-4.2-6.2-8.7-9.5-12.9
			c-0.4-0.5-0.7-0.9-1.3-1.3c-1.1-0.8-3,0.1-3.3,0.7c-0.3,0.5-0.3,1.3-0.1,1.7c6.1,9.1,8.4,12.1,12.4,18.1c0.1,3.7,0.1,7.5-0.1,11.2
			c-1.8,6.8-5.3,13-6.6,19.9c-0.3,2.6,3.6,3,4.5,0.9c2.3-5.4,4.6-10.8,6.9-16.2c0.6,0.1,1.8,0,2.4,0.1c2.2,5.3,4.3,10.8,6.9,15.9
			c0.8,1.7,2.3,2.2,3.9,1.5c1.1-0.5,1.2-2.6,0.6-4c-1.9-5-4.1-11-5.9-16c-0.3-0.8-0.2-0.7-0.4-1.9c-0.1-4.1,0-8.7-0.1-11.2
			c3.8-6,7.4-11.8,11.1-17.9c0.9-1.1,0.4-2.3-0.1-3.5c-0.1,0-0.2,0-0.2-0.1C43.9,1,42.5,2.5,41.9,3.4"/>
		<path id="XMLID_30_" d="M28.3,16.1c2.9,0.8,5.8-2.1,5.2-5.1c0-2.9-3.5-4.7-6-3.7C23.1,8.7,23.9,15.6,28.3,16.1"/>
	</g>
</g>
</svg>
