<?xml version="1.0" encoding="utf-8"?>
<!-- Generator: Adobe Illustrator 19.0.0, SVG Export Plug-In . SVG Version: 6.00 Build 0)  -->
<svg version="1.1" id="Layer_1" xmlns="http://www.w3.org/2000/svg" xmlns:xlink="http://www.w3.org/1999/xlink" x="0px" y="0px"
	 viewBox="-37 39 24 24" style="enable-background:new -37 39 24 24;" xml:space="preserve">
<path d="M-23,50.5c1.4,0,2.5-1.1,2.5-2.5c0-1.4-1.1-2.5-2.5-2.5c-1.4,0-2.5,1.1-2.5,2.5C-25.5,49.4-24.4,50.5-23,50.5z M-23,41
	c3.9,0,7,3.1,7,7c0,5.2-7,13-7,13s-7-7.8-7-13C-30,44.1-26.9,41-23,41z M-32,48c0,4.5,5.1,10.7,6,11.8l-1,1.2c0,0-7-7.8-7-13
	c0-3.2,2.1-5.9,5-6.7C-30.8,42.9-32,45.3-32,48z"/>
</svg>
