<?xml version="1.0" encoding="utf-8"?>
<!-- Generator: Adobe Illustrator 19.0.0, SVG Export Plug-In . SVG Version: 6.00 Build 0)  -->
<svg version="1.1" id="Layer_1" xmlns="http://www.w3.org/2000/svg" xmlns:xlink="http://www.w3.org/1999/xlink" x="0px" y="0px"
	 viewBox="-37 39 24 24" style="enable-background:new -37 39 24 24;" xml:space="preserve">
<style type="text/css">
	.st0{fill:#050708;}
</style>
<path class="st0" d="M-34,44c0-1.1,0.9-2,2-2h14c1.1,0,2,0.9,2,2v14c0,1.1-0.9,2-2,2h-14c-1.1,0-2-0.9-2-2V44z M-30,57h2l0.4-2h4
	l-0.4,2h2l0.4-2h2l0.4-2h-2l0.7-4h2l0.4-2h-2l0.4-2h-2l-0.4,2h-4l0.4-2h-2l-0.4,2l-2,0l-0.4,2h2l-0.7,4h-2l-0.4,2h2L-30,57z
	 M-26.6,49h4l-0.7,4h-4L-26.6,49z"/>
</svg>
