<?xml version="1.0" encoding="utf-8"?>
<!-- Generator: Adobe Illustrator 19.0.0, SVG Export Plug-In . SVG Version: 6.00 Build 0)  -->
<svg version="1.1" id="Layer_1" xmlns="http://www.w3.org/2000/svg" xmlns:xlink="http://www.w3.org/1999/xlink" x="0px" y="0px"
	 viewBox="0 0 490.8 120" style="enable-background:new 0 0 490.8 120;" xml:space="preserve">
<style type="text/css">
	.st0{opacity:0.3;}
	.st1{clip-path:url(#XMLID_212_);fill:#231F20;}
	.st2{opacity:0.2;clip-path:url(#XMLID_212_);}
	.st3{clip-path:url(#XMLID_213_);fill:#231F20;}
	.st4{fill:#020202;}
	.st5{opacity:0.2;}
	.st6{clip-path:url(#XMLID_214_);fill:#231F20;}
	.st7{fill:#28BC45;}
	.st8{fill:#FFFFFF;}
	.st9{clip-path:url(#XMLID_215_);fill:#231F20;}
	.st10{opacity:0.3;clip-path:url(#XMLID_215_);}
	.st11{clip-path:url(#XMLID_216_);fill:#231F20;}
	.st12{opacity:0.2;clip-path:url(#XMLID_215_);}
	.st13{clip-path:url(#XMLID_217_);fill:#231F20;}
	.st14{clip-path:url(#XMLID_218_);fill:#231F20;}
	.st15{opacity:0.2;clip-path:url(#XMLID_219_);}
	.st16{clip-path:url(#XMLID_220_);fill:#231F20;}
	.st17{clip-path:url(#XMLID_219_);fill:#231F20;}
	.st18{clip-path:url(#XMLID_221_);fill:#231F20;}
	.st19{opacity:0.3;clip-path:url(#XMLID_221_);}
	.st20{clip-path:url(#XMLID_222_);fill:#231F20;}
	.st21{opacity:0.2;clip-path:url(#XMLID_221_);}
	.st22{clip-path:url(#XMLID_223_);fill:#231F20;}
	.st23{clip-path:url(#XMLID_224_);fill:#231F20;}
	.st24{fill:#181718;}
	.st25{clip-path:url(#XMLID_225_);fill:#231F20;}
	.st26{clip-path:url(#XMLID_226_);fill:#231F20;}
	.st27{opacity:0.3;clip-path:url(#XMLID_226_);}
	.st28{clip-path:url(#XMLID_227_);fill:#231F20;}
	.st29{opacity:0.2;clip-path:url(#XMLID_226_);}
	.st30{clip-path:url(#XMLID_228_);fill:#231F20;}
</style>
<g id="XMLID_153_">
	<g id="XMLID_162_" class="st0">
		<g id="XMLID_163_">
			<defs>
				<rect id="XMLID_164_" x="112.3" y="92.1" width="87" height="19.6"/>
			</defs>
			<clipPath id="XMLID_212_">
				<use xlink:href="#XMLID_164_"  style="overflow:visible;"/>
			</clipPath>
			<path id="XMLID_172_" class="st1" d="M152.2,92.2c-4.5-0.5-9.7,0.8-8.4,2.1c0.7,1.2,5.9,1.9,9.4,1.2
				C157.6,94.7,157.2,92.6,152.2,92.2"/>
			<path id="XMLID_171_" class="st1" d="M154.8,97c-5.1-0.5-9.8-1.4-15-1.8c-3.3-0.1-6.5,0.2-9.7,0.4c-2.7,0.2-5.7,0.3-7.9,0.8
				c-3.3,0.7-6.5,1.5-9.8,2.3c-0.6,0.7,1.4,1.5,4.1,1.3c3.6-0.5,6.2-1.5,9.6-2.1c3.2-0.2,6.5-0.3,9.7-0.5c-2.4,1.7-5.4,3.4-7.4,5.2
				c2.8,1.4,5.3,2.8,7.8,4.3c-1.6,1.1-3.4,2.1-5,3.2c-0.5,0.4-0.9,1,0.3,1.3c1.5,0.5,4.6,0.5,5.6-0.2c2.5-1.3,4.5-2.7,6.6-4
				c1.2-0.5-0.3-1-1-1.5c-1.4-0.8-3.2-1.6-4.4-2.5c1.3,0.2,1.8,0.6,2.5,1c1.5,0.9,3.2,1.7,4.6,2.5c-2,1.3-4.4,2.5-5.8,3.9
				c-0.9,1,4.7,1.6,6.5,0.7c3-1.4,5.3-3,7.3-4.5c-1.4-1.4-4.7-2.7-6.8-4c1.7-1.3,3.7-2.5,5.3-3.8c4.4,0,8.8,0.1,13.2,0.1
				c4-0.4,7.7-0.9,11.5-1.4c3.1-0.3,2.1-1.8-1.1-1.8c-4.2,0.3-7.8,1-11.8,1.4C160.7,97.1,157.8,97,154.8,97"/>
			<g id="XMLID_167_" class="st2">
				<g id="XMLID_168_">
					<defs>
						<rect id="XMLID_169_" x="164.6" y="96.8" width="34.7" height="12.1"/>
					</defs>
					<clipPath id="XMLID_213_">
						<use xlink:href="#XMLID_169_"  style="overflow:visible;"/>
					</clipPath>
					<path id="XMLID_170_" class="st3" d="M181.9,96.8c-9.6,0-17.4,2.2-17.4,4.8c0,4.2,17.4,7.2,17.4,7.2s17.4-2.9,17.4-7.2
						C199.3,98.9,191.5,96.8,181.9,96.8"/>
				</g>
			</g>
			<path id="XMLID_166_" class="st1" d="M181.9,96.2c-9.6,0-17.4,2.2-17.4,4.8c0,4.2,17.4,7.2,17.4,7.2s17.4-2.9,17.4-7.2
				C199.3,98.4,191.5,96.2,181.9,96.2"/>
			<path id="XMLID_165_" class="st1" d="M183.8,100.5c0-0.5-0.1-0.9-2-0.9c-1.2,0-1.9,0.1-1.9,0.5c0,0.4,0.9,0.5,2,0.7
				c1.1,0.2,3.2,0.6,4.2,0.8c1.2,0.3,1.5,0.6,1.5,1.1c0,1-2.3,1.5-5.7,1.5c-4.1,0-5.6-0.6-5.6-1.6v-0.4h3.4v0.3
				c-0.1,0.5,0.5,0.9,2.2,0.9c1.4,0,2.1-0.2,2.1-0.6c0-0.3-0.5-0.5-1.4-0.7c-1.8-0.4-4-0.7-5.4-1.2c-0.6-0.2-0.9-0.5-0.9-0.8
				c0-0.9,1.8-1.4,5.4-1.4c5.5,0,5.3,1.2,5.3,1.7H183.8z"/>
		</g>
	</g>
	<path id="XMLID_161_" class="st4" d="M156,49.1c-4-2.3-9.4,1.5-8.8,6c0.2,4,4.7,7,8.3,5C159.9,58.4,160.5,51.2,156,49.1"/>
	<path id="XMLID_160_" class="st4" d="M156.4,65.4c-4.5-2.4-8.6-5.7-13.3-7.8c-3.1-0.6-6.2-0.1-9.3,0.1c-2.6,0.4-5.5,0.2-7.8,1.7
		c-3.4,2-6.7,4.2-10.1,6.3c-0.9,2.3,0.7,5.2,3.3,4.8c3.6-1.3,6.5-4.1,9.9-5.8c3.1-0.4,6.2-0.3,9.3-0.6c-3,5.5-6.6,10.7-9.2,16.4
		c2,5,3.8,10.1,5.6,15.1c-2,3.4-4.1,6.7-6.1,10.1c-0.7,1.3-1.3,3.1-0.3,4.4c1.2,1.9,4.2,2.2,5.3,0.2c2.9-4,5.3-8.3,7.9-12.5
		c1.3-1.6,0.2-3.4-0.3-5.1c-1-2.9-2.3-5.8-3.1-8.8c1.2,0.8,1.4,2.3,1.9,3.5c1,3,2.3,6,3.2,9c-2.4,4-5.2,7.9-7.1,12.2
		c-1.2,3.3,3.7,6,5.8,3.2c3.4-4.4,6.3-9.3,8.8-14.2c-0.7-4.9-3.2-9.4-4.7-14.2c2.2-4.1,4.5-8,6.6-12.1c4.2,0.5,8.2,1.4,12.4,1.9
		c3.9-0.7,7.6-2.2,11.4-3.3c3.1-0.7,2.7-5.7-0.3-6.2c-4,0.5-7.7,2.6-11.7,3.3C161.9,66.6,159.1,66,156.4,65.4"/>
	<g id="XMLID_156_" class="st5">
		<g id="XMLID_157_">
			<defs>
				<rect id="XMLID_158_" x="164.6" y="64.9" width="34.7" height="42.9"/>
			</defs>
			<clipPath id="XMLID_214_">
				<use xlink:href="#XMLID_158_"  style="overflow:visible;"/>
			</clipPath>
			<path id="XMLID_159_" class="st6" d="M181.9,64.9c-9.6,0-17.4,7.7-17.4,17.2c0,15,17.4,25.7,17.4,25.7s17.4-10.5,17.4-25.7
				C199.3,72.6,191.5,64.9,181.9,64.9"/>
		</g>
	</g>
	<path id="XMLID_155_" class="st7" d="M181.9,62.9c-9.6,0-17.4,7.7-17.4,17.2c0,15,17.4,25.7,17.4,25.7s17.4-10.5,17.4-25.7
		C199.3,70.6,191.5,62.9,181.9,62.9"/>
	<path id="XMLID_154_" class="st8" d="M183.8,78.3c0-1.6-0.1-3.3-2-3.3c-1.2,0-1.9,0.5-1.9,1.7c0,1.4,0.9,1.9,2,2.6
		c1.1,0.7,3.2,2.1,4.2,3c1.2,1.1,1.5,2.3,1.5,3.8c0,3.5-2.3,5.3-5.7,5.3c-4.1,0-5.6-2.3-5.6-5.6v-1.3h3.4v1.1
		c-0.1,1.8,0.5,3.1,2.2,3.1c1.4,0,2.1-0.8,2.1-2.2c0-1.1-0.5-1.8-1.4-2.4c-1.8-1.4-4-2.4-5.4-4.2c-0.6-0.8-0.9-1.8-0.9-2.8
		c0-3.1,1.8-4.8,5.4-4.8c5.5,0,5.3,4.2,5.3,6H183.8z"/>
</g>
<g id="XMLID_108_">
	<g id="XMLID_127_" class="st0">
		<g id="XMLID_128_">
			<defs>
				<rect id="XMLID_129_" x="14.5" y="99.1" width="72.5" height="13.7"/>
			</defs>
			<clipPath id="XMLID_215_">
				<use xlink:href="#XMLID_129_"  style="overflow:visible;"/>
			</clipPath>
			<path id="XMLID_152_" class="st9" d="M63.3,100.6c3.3-0.2,7.5,0.3,7.2,1c0.3,0.8-4.7,1.3-8.1,0.9
				C58.5,102.1,59.1,100.8,63.3,100.6"/>
			<path id="XMLID_151_" class="st9" d="M39.9,101.4c-0.2-0.5,3.3-0.7,4.8-0.4c2.2,0.4,4.1,0.9,6.3,1.3c2.6,0.2,5.2,0.4,7.9,0.5
				c4.3,0,8.7,0,13,0c1.8,0,3,0.3,4,0.5c3.3,0.8,6.6,1.5,9.9,2.3c0.8,0.2,1.8,0.6,0.5,0.8c-1.1,0.3-3.3,0.2-4.2-0.1
				c-3.3-0.8-6.6-1.5-9.9-2.3c0.1,1.2-0.2,2.4,0.1,3.7c3.2,1.4,6.8,2.8,9.9,4.2c0.9,0.3-0.1,0.7-1.9,0.8c-1.7,0.1-3.4-0.1-4.1-0.4
				c-3.5-1.4-6.8-2.9-10.4-4.3c-0.3,0-0.9,0-1.2,0c-3,1.2-5.7,2.4-8.6,3.6c-0.9,0.3-1.5,0.7-2.9,1c-1.7,0.3-4.9,0-5-0.4
				c0.1-0.3,0.8-0.6,1.5-0.9c2.7-1.1,5.3-2.2,8-3.4c0.4-0.2,0.6-0.3,0.6-0.5c0-1.2,0-2.4,0-3.5c-2.9-0.2-5.8-0.4-8.7-0.6
				c-2.3-0.2-3.6-0.6-5.2-0.9C42.7,102.1,40.8,101.8,39.9,101.4"/>
			<g id="XMLID_146_" class="st10">
				<g id="XMLID_147_">
					<defs>
						<rect id="XMLID_148_" x="39.9" y="111" width="47.1" height="1.9"/>
					</defs>
					<clipPath id="XMLID_216_">
						<use xlink:href="#XMLID_148_"  style="overflow:visible;"/>
					</clipPath>
					<path id="XMLID_150_" class="st11" d="M63.3,111c3.3,0,7.5,0,7.2,0.2c0.3,0.1-4.7,0.2-8.1,0.1C58.5,111.2,59.1,111,63.3,111"/>
					<path id="XMLID_149_" class="st11" d="M39.9,111.1c-0.2-0.1,3.3-0.1,4.8-0.1c2.2,0.1,4.1,0.1,6.3,0.2c2.6,0,5.2,0.1,7.9,0.1
						c4.3,0,8.7,0,13,0c1.8,0,3,0,4,0.1c3.3,0.1,6.6,0.2,9.9,0.4c0.8,0,1.8,0.1,0.5,0.1c-1.1,0-3.3,0-4.2,0
						c-3.3-0.1-6.6-0.2-9.9-0.4c0.1,0.2-0.2,0.4,0.1,0.6c3.2,0.2,6.8,0.4,9.9,0.6c0.9,0-0.1,0.1-1.9,0.1c-1.7,0-3.4,0-4.1-0.1
						c-3.5-0.2-6.8-0.4-10.4-0.7h-1.2c-3,0.2-5.7,0.4-8.6,0.6c-0.9,0.1-1.5,0.1-2.9,0.2c-1.7,0-4.9,0-5-0.1c0.1,0,0.8-0.1,1.5-0.1
						c2.7-0.2,5.3-0.3,8-0.5c0.4,0,0.6-0.1,0.6-0.1c0-0.2,0-0.4,0-0.5c-2.9,0-5.8-0.1-8.7-0.1c-2.3,0-3.6-0.1-5.2-0.1
						C42.7,111.2,40.8,111.2,39.9,111.1"/>
				</g>
			</g>
			<g id="XMLID_142_" class="st12">
				<g id="XMLID_143_">
					<defs>
						<rect id="XMLID_144_" x="14.5" y="99.5" width="31.8" height="7.7"/>
					</defs>
					<clipPath id="XMLID_217_">
						<use xlink:href="#XMLID_144_"  style="overflow:visible;"/>
					</clipPath>
					<path id="XMLID_145_" class="st13" d="M31.6,99.5c-8.8-0.1-16.4,1.1-17.1,2.8c-1,2.7,14.1,4.8,14.1,4.8s16.6-1.6,17.6-4.4
						C46.9,101.1,40.4,99.6,31.6,99.5"/>
				</g>
			</g>
			<path id="XMLID_141_" class="st9" d="M31.7,99.1C23,99,15.3,100.3,14.7,102c-1,2.7,14.1,4.8,14.1,4.8s16.6-1.6,17.6-4.4
				C47.1,100.7,40.5,99.3,31.7,99.1"/>
			<path id="XMLID_133_" class="st9" d="M39.6,102.7l-1.8,0c0,0,0-0.1-0.1-0.1l3.4-0.3c0.4,0,0.5-0.1,0.4-0.2
				c-0.1-0.1-0.5-0.1-0.9-0.1l-3.2,0.3c-1-0.5-3.5-0.9-6.5-1c-3.7-0.1-6.9,0.4-7.8,1.1l-1.8,0c-0.9,0-1.8,0.1-1.8,0.3
				c0,0.1,0.1,0.1,0.3,0.2l2.2,0.6l0,0.1c-0.1,0.2,0.6,0.3,1.6,0.4l13,0.2c0.9,0,1.8-0.1,1.8-0.3l0-0.1l2.6-0.5
				c0.2,0,0.4-0.1,0.4-0.2C41.3,102.9,40.6,102.7,39.6,102.7 M37.1,102.7l-0.4,0L37.1,102.7C37.1,102.7,37.1,102.7,37.1,102.7
				 M30.8,101.5c2.8,0,5,0.4,5.9,0.9l-0.6,0.1c-0.8-0.4-2.8-0.8-5.3-0.8c-2.9,0-5.5,0.3-6.4,0.8l-0.7,0
				C24.6,101.9,27.5,101.5,30.8,101.5 M33.5,102.6c-0.4-0.2-1.6-0.4-3-0.4c-1.4,0-2.7,0.1-3.3,0.4l-0.7,0c0.7-0.3,2.3-0.5,4.1-0.5
				c1.7,0,3.1,0.2,3.6,0.5l-0.5,0L33.5,102.6z M30.4,102.5c-0.6,0-1.2,0-1.6,0.1l-0.8,0c0.5-0.2,1.4-0.2,2.5-0.2
				c1,0,1.8,0.1,2.3,0.3l-0.8,0C31.6,102.5,31.1,102.5,30.4,102.5 M30.7,101.9c-2.2,0-4.1,0.2-4.8,0.6l-0.7,0
				c0.8-0.5,3.1-0.8,5.6-0.7c2.2,0,4,0.3,4.7,0.7l-0.6,0C34.2,102.2,32.6,102,30.7,101.9 M36.9,103.6l-0.1,0.2c0,0-0.2,0.1-0.4,0.1
				l-13-0.2c-0.2,0-0.3,0-0.3-0.1l0.1-0.2l-2.5-0.6c0,0,0.2-0.1,0.4-0.1l1.7,0l0.7,0l0.7,0l0.7,0l0.7,0l0.7,0l0.7,0l0.7,0l0.7,0
				l4.1,0.1l0.7,0l0.7,0l0.7,0l0.7,0l0.7,0l0.7,0l0.7,0l0.7,0l1.7,0c0.2,0,0.3,0,0.3,0.1L36.9,103.6z"/>
			<path id="XMLID_132_" class="st9" d="M25.4,101.3C25.4,101.3,25.4,101.3,25.4,101.3c0.1,0,0.2,0,0.3,0c0.2,0,0.4,0,0.4-0.1
				c0,0,0,0,0,0c0,0,0,0,0,0c-0.2-0.1,0.1-0.2,0.4-0.4c0.4-0.1,0.8-0.3,0.5-0.5c0,0-0.2,0-0.3,0c-0.2,0-0.3,0-0.4,0.1c0,0,0,0,0,0
				c0,0,0,0,0,0c0,0,0,0,0,0v0c0.2,0.1-0.1,0.2-0.4,0.4C25.5,100.9,25.1,101.1,25.4,101.3C25.4,101.3,25.4,101.3,25.4,101.3"/>
			<path id="XMLID_131_" class="st9" d="M33.7,101.4C33.7,101.4,33.7,101.4,33.7,101.4L33.7,101.4c0.1,0,0.2,0,0.3,0
				c0.2,0,0.4,0,0.4-0.1c0,0,0,0,0,0c0,0,0,0,0,0c-0.2-0.1,0.1-0.2,0.4-0.4c0.4-0.1,0.8-0.3,0.5-0.5c0,0-0.2,0-0.3,0
				c-0.2,0-0.3,0-0.4,0.1c0,0,0,0,0,0c0,0,0,0,0,0l0,0c0.2,0.1-0.1,0.2-0.4,0.4C33.8,101,33.4,101.2,33.7,101.4
				C33.7,101.4,33.7,101.4,33.7,101.4"/>
			<path id="XMLID_130_" class="st9" d="M30.4,100.8C30.4,100.8,30.4,100.8,30.4,100.8L30.4,100.8c0.1,0,0.2,0,0.3,0
				c0.2,0,0.4,0,0.4-0.1c0,0,0,0,0,0c0,0,0,0,0,0c-0.2-0.1,0.1-0.2,0.4-0.4c0.4-0.1,0.8-0.3,0.5-0.5c0,0-0.2,0-0.3,0
				c-0.2,0-0.3,0-0.4,0.1c0,0,0,0,0,0h0c0,0,0,0,0,0l0,0c0.2,0.1-0.1,0.2-0.4,0.4C30.5,100.4,30.1,100.6,30.4,100.8
				C30.4,100.8,30.4,100.8,30.4,100.8"/>
		</g>
	</g>
	<path id="XMLID_126_" class="st4" d="M63.3,50c3.3-1.2,7.5,1.4,7.2,5.1c0.3,4.1-4.7,6.8-8.1,4.8C58.5,57.8,59.1,51.2,63.3,50"/>
	<path id="XMLID_125_" class="st4" d="M39.9,54.3c-0.2-2.4,3.3-3.8,4.8-2c2.2,2.1,4.1,4.5,6.3,6.5c2.6,1.1,5.2,2.1,7.9,2.8
		c4.3,0.2,8.7-0.1,13,0.1c1.8,0,3,1.6,4,2.8c3.3,4,6.6,7.9,9.9,11.9c0.8,1.1,1.8,3,0.5,4.1c-1.1,1.3-3.3,0.9-4.2-0.4
		c-3.3-3.9-6.6-7.9-9.9-11.7c0.1,6.2-0.2,12.5,0.1,18.7c3.2,7.2,6.8,14.2,9.9,21.3c0.9,1.6-0.1,3.6-1.9,4c-1.7,0.7-3.4-0.7-4.1-2.1
		c-3.5-7.3-6.8-14.7-10.4-22c-0.3,0-0.9,0-1.2,0c-3,6.1-5.7,12.4-8.6,18.6c-0.9,1.8-1.5,3.8-2.9,5.2c-1.7,1.6-4.9,0.1-5-2.2
		c0.1-1.6,0.8-3.1,1.5-4.6c2.7-5.7,5.3-11.5,8-17.2c0.4-0.8,0.6-1.7,0.6-2.7c0-6,0-12.1,0-18.1c-2.9-1.1-5.8-2.2-8.7-3.3
		c-2.3-0.8-3.6-3-5.2-4.6C42.7,57.9,40.8,56.4,39.9,54.3"/>
	<g id="XMLID_121_" class="st5">
		<g id="XMLID_122_">
			<defs>
				<rect id="XMLID_123_" x="14.5" y="44.4" width="31.8" height="39.3"/>
			</defs>
			<clipPath id="XMLID_218_">
				<use xlink:href="#XMLID_123_"  style="overflow:visible;"/>
			</clipPath>
			<path id="XMLID_124_" class="st14" d="M31.6,44.4c-8.8-0.7-16.4,5.8-17.1,14.5c-1,13.7,14.1,24.7,14.1,24.7s16.6-8.4,17.6-22.3
				C46.9,52.7,40.4,45.1,31.6,44.4"/>
		</g>
	</g>
	<path id="XMLID_120_" class="st7" d="M31.7,42.6c-8.8-0.7-16.4,5.8-17.1,14.5c-1,13.7,14.1,24.7,14.1,24.7s16.6-8.4,17.6-22.3
		C47.1,50.8,40.5,43.2,31.7,42.6"/>
	<path id="XMLID_112_" class="st8" d="M39.6,61l-1.8-0.1c0-0.2,0-0.3-0.1-0.5l3.4-1.4c0.4-0.1,0.5-0.5,0.4-0.9
		c-0.1-0.4-0.5-0.5-0.9-0.4L37.3,59c-1-2.7-3.5-4.7-6.5-4.9c-3.7-0.3-6.9,2.2-7.8,5.6l-1.8-0.1c-0.9-0.1-1.8,0.6-1.8,1.6
		c0,0.3,0.1,0.7,0.3,0.9l2.2,2.9l0,0.5c-0.1,0.9,0.6,1.8,1.6,1.8l13,1c0.9,0.1,1.8-0.6,1.8-1.6l0-0.5l2.6-2.5
		c0.2-0.2,0.4-0.6,0.4-0.9C41.3,61.9,40.6,61.1,39.6,61 M37.1,60.8l-0.4,0l0.4-0.1C37.1,60.7,37.1,60.8,37.1,60.8 M30.8,54.9
		c2.8,0.2,5,2,5.9,4.5l-0.6,0.3c-0.8-2.2-2.8-3.8-5.3-4c-2.9-0.2-5.5,1.6-6.4,4.3l-0.7-0.1C24.6,56.7,27.5,54.6,30.8,54.9
		 M33.5,60.6c-0.4-1.2-1.6-2.2-3-2.3c-1.4-0.1-2.7,0.7-3.3,1.8L26.5,60c0.7-1.5,2.3-2.6,4.1-2.4c1.7,0.1,3.1,1.3,3.6,2.8l-0.5,0.2
		L33.5,60.6z M30.4,59.6c-0.6,0-1.2,0.2-1.6,0.6L28,60.1c0.5-0.8,1.4-1.3,2.5-1.2c1,0.1,1.8,0.7,2.3,1.5l-0.8-0.1
		C31.6,60,31.1,59.7,30.4,59.6 M30.7,56.9c-2.2-0.2-4.1,1.1-4.8,3.1l-0.7-0.1c0.8-2.3,3.1-3.9,5.6-3.7c2.2,0.2,4,1.6,4.7,3.6
		l-0.6,0.3C34.2,58.4,32.6,57,30.7,56.9 M36.9,65.6l-0.1,1c0,0.2-0.2,0.3-0.4,0.3l-13-1c-0.2,0-0.3-0.2-0.3-0.4l0.1-1l-2.5-3.3
		c0-0.2,0.2-0.3,0.4-0.3l1.7,0.1l0.7,0l0.7,0.1l0.7,0.1l0.7,0l0.7,0l0.7,0.1l0.7,0.1l0.7,0l4.1,0.3l0.7,0.1l0.7,0l0.7,0.1l0.7,0.1
		l0.7,0.1l0.7,0.1l0.7,0l0.7,0.1l1.7,0.1c0.2,0,0.3,0.2,0.3,0.4L36.9,65.6z"/>
	<path id="XMLID_111_" class="st8" d="M25.4,53.6C25.4,53.6,25.4,53.6,25.4,53.6c0.1,0.1,0.2,0.2,0.3,0.2c0.2,0,0.4-0.1,0.4-0.3
		c0,0,0-0.1,0-0.1c0,0,0,0,0,0c-0.2-0.6,0.1-1.3,0.4-2c0.4-0.7,0.8-1.6,0.5-2.5c0-0.1-0.2-0.2-0.3-0.2c-0.2,0-0.3,0.1-0.4,0.3
		c0,0,0,0.1,0,0.1c0,0,0,0,0,0c0,0,0,0,0,0v0c0.2,0.6-0.1,1.3-0.4,2C25.5,51.8,25.1,52.6,25.4,53.6C25.4,53.5,25.4,53.6,25.4,53.6"
		/>
	<path id="XMLID_110_" class="st8" d="M33.7,54.1C33.7,54.1,33.7,54.1,33.7,54.1L33.7,54.1c0.1,0.1,0.2,0.2,0.3,0.2
		c0.2,0,0.4-0.1,0.4-0.3c0,0,0-0.1,0-0.1c0,0,0,0,0,0c-0.2-0.6,0.1-1.3,0.4-2c0.4-0.7,0.8-1.6,0.5-2.5c0-0.1-0.2-0.2-0.3-0.2
		c-0.2,0-0.3,0.1-0.4,0.3c0,0,0,0.1,0,0.1v0c0,0,0,0,0,0l0,0c0.2,0.6-0.1,1.3-0.4,2C33.8,52.4,33.4,53.2,33.7,54.1
		C33.7,54.1,33.7,54.1,33.7,54.1"/>
	<path id="XMLID_109_" class="st8" d="M30.4,50.9C30.4,50.9,30.4,50.9,30.4,50.9L30.4,50.9c0.1,0.1,0.2,0.2,0.3,0.2
		c0.2,0,0.4-0.1,0.4-0.3c0,0,0-0.1,0-0.1c0,0,0,0,0,0c-0.2-0.6,0.1-1.3,0.4-2c0.4-0.7,0.8-1.6,0.5-2.5c0-0.1-0.2-0.2-0.3-0.2
		c-0.2,0-0.3,0.1-0.4,0.3c0,0,0,0.1,0,0.1l0,0c0,0,0,0,0,0l0,0c0.2,0.6-0.1,1.3-0.4,2C30.5,49.1,30.1,50,30.4,50.9
		C30.4,50.9,30.4,50.9,30.4,50.9"/>
</g>
<g id="XMLID_80_">
	<g id="XMLID_91_" class="st0">
		<g id="XMLID_92_">
			<defs>
				<rect id="XMLID_93_" x="413" y="86.5" width="54.1" height="23.6"/>
			</defs>
			<clipPath id="XMLID_219_">
				<use xlink:href="#XMLID_93_"  style="overflow:visible;"/>
			</clipPath>
			<g id="XMLID_104_" class="st15">
				<g id="XMLID_105_">
					<defs>
						<rect id="XMLID_106_" x="415.4" y="86.6" width="51.7" height="11.8"/>
					</defs>
					<clipPath id="XMLID_220_">
						<use xlink:href="#XMLID_106_"  style="overflow:visible;"/>
					</clipPath>
					<path id="XMLID_107_" class="st16" d="M417.8,91.8c-5.6,3.2-1.3,6.2,9.6,6.6c17.6,0.6,39.6-4.8,39.6-4.8s-2.2-6.3-19.5-6.9
						C436.7,86.2,423.4,88.5,417.8,91.8"/>
				</g>
			</g>
			<path id="XMLID_103_" class="st17" d="M415.4,91.7c5.6-3.2,18.9-5.6,29.8-5.2c17.2,0.6,19.5,6.9,19.5,6.9s-22.1,5.4-39.6,4.8
				C414.2,97.9,409.9,94.9,415.4,91.7"/>
			<path id="XMLID_96_" class="st17" d="M450.5,89.2l-3.9,2.7c0.3,0.2,0.4,0.4-0.1,0.6c-0.5,0.3-1.1,0.4-2.3,0.6l-5.1,3.2l-19.8-0.7
				c0.4-0.2,0.6-0.2,0.8-0.4c0.7-0.4,0.7-0.7,0.1-1.1c2.2-0.9,5.1-1.7,8.9-2.3c-1.7-0.8-1.9-1.7,0.1-2.9c1.4,0,2.3-0.1,3.6-0.4
				L450.5,89.2z M445.3,91.6c0.3-0.6,0.7-1.1,1.6-1.9l-1,0.1C445,90.5,444.9,90.9,445.3,91.6 M444.4,92.2c-1-1.1-1.1-1.5-0.5-2.4
				l-13.5-0.5c-1.4,0.9-1.4,1.7,0.1,2.4L444.4,92.2z M436.8,94.5c1.9-0.8,4.1-1.4,7-1.9l-13.6-0.5c-3,0.4-5.5,1-7.6,1.9L436.8,94.5z
				 M422.6,94.4l-0.1,0.2l14.6,0.5c1.1-0.5,2.4-1.1,4.3-1.7c-1.9,0.4-3,0.8-4.4,1.5L422.6,94.4z M422.2,95.1l-0.4,0.2l16.3,0.6
				c0.5-0.3,0.7-0.5,1.4-0.9c0.7-0.4,1.1-0.6,1.9-1c-1.2,0.4-2.5,0.9-3.6,1.6L422.2,95.1z"/>
			<path id="XMLID_95_" class="st17" d="M422.6,96.8c-1.5-0.3-4.8,0.4-4.3,0.9c1,0.3,2.7,0.5,4.1,0.7c4,0.5,7.9,1.1,11.8,1.7
				c0.1,1.1,0.2,2.2,0.3,3.3c-2.7,1-5.4,2-8.1,2.9c-1.1,0.4-0.7,0.8-0.9,1.1c0.1,0.8-0.5,1.6,0.1,2.3c0.6,0.6,5,0.2,5.5-0.5
				c0.7-0.9,0.3-1.7,0.6-2.5c0.1-0.2,0.7-0.3,1.1-0.5c2.2-0.8,4.5-1.6,6.7-2.4c1-0.1,2-0.2,3-0.3c2.2,0.6,4.3,1.3,6.5,1.9
				c1.1,0.3,3.4,0.2,5.1,0.2c2.9-0.1,5.7,0.1,8.7-0.2c2.4-0.2,3.7-1.3,1.4-1.3c-2.3-0.1-4.8,0-7.2,0c-1.4,0-3.2,0.1-3.9-0.2
				c-1.7-0.5-3.7-1-5.3-1.6c-0.2-1.2-0.3-2.4-0.4-3.7c5.5-1.4,10.8-2.8,16.2-4.2c0.9-0.3,2.3-0.5,2-0.9c0.1-0.5-2.7-0.5-4.1-0.1
				c-4.6,1.2-9.1,2.3-13.7,3.5c-1.1,0.3-2.5,0.3-3.7,0.5c-3.2,0.3-6.4,0.7-9.6,0.9C430.5,97.9,426.6,97.3,422.6,96.8"/>
			<path id="XMLID_94_" class="st17" d="M443.1,95.1c-3-0.1-7.3,0.9-7.1,1.7c-0.3,0.9,4.4,1.2,7.3,0.3
				C446.5,96.4,446.4,95.2,443.1,95.1"/>
		</g>
	</g>
	<path id="XMLID_90_" class="st7" d="M417.2,30.8c5.8-10.9,19.3-15.1,30.2-9.3c17.1,9.2,18.7,35.5,18.7,35.5s-22.5,13.4-39.9,4.1
		C415.4,55.3,411.3,41.8,417.2,30.8"/>
	<path id="XMLID_83_" class="st8" d="M452.3,34.3l-4.2,9.2c0.3,0.9,0.3,1.6-0.1,2.5c-0.5,0.9-1.1,1.3-2.3,1.6l-5.4,11.1l-19.6-10.5
		c0.4-0.5,0.6-0.7,0.9-1.2c0.8-1.5,0.7-2.8,0.2-4.3c2.2-2.9,5.2-4.9,9.1-5.7c-1.6-3.9-1.7-7.7,0.4-11.7c1.4,0.6,2.3,0.5,3.7-0.3
		L452.3,34.3z M446.9,41.9c0.4-2.4,0.8-4.2,1.8-7l-1,0.1C446.8,37.4,446.5,39.1,446.9,41.9 M445.9,44c-0.9-4.9-1-6.3-0.2-9.9
		l-13.3-7.1c-1.4,3.2-1.5,6.4-0.1,9.7L445.9,44z M438.1,50.5c2-2.6,4.3-4.2,7.1-4.9l-13.5-7.2c-3,0.5-5.6,1.8-7.7,4.6L438.1,50.5z
		 M424.1,44.8l-0.1,0.9l14.5,7.7c1.1-1.7,2.5-3.4,4.5-5.3c-1.9,1.1-3,2.1-4.5,4.2L424.1,44.8z M423.5,47.1l-0.4,0.8l16.1,8.6
		c0.5-1.2,0.8-1.8,1.5-3c0.7-1.3,1.1-2,2-3.4c-1.3,1.2-2.6,2.9-3.7,5L423.5,47.1z"/>
	<path id="XMLID_82_" class="st4" d="M423.8,54.2c-1.5-1.6-4.8-0.2-4.3,2.1c1,1.8,2.6,3,4,4.5c4,3.7,7.8,7.6,11.6,11.5
		c0,4.5,0,9,0,13.5c-2.8,2.9-5.5,5.9-8.4,8.8c-1.2,1.1-0.8,2.9-1,4.3c0,3.1-0.7,6.2-0.1,9.3c0.5,2.5,4.9,2.8,5.5,0.2
		c0.7-3.3,0.5-6.7,0.8-10c0.1-0.7,0.7-1.1,1.1-1.6c2.3-2.4,4.6-4.8,6.9-7.2c1,0,2,0,3,0c2.2,3.3,4.2,6.8,6.3,10.1
		c1,1.8,3.4,1.9,5.1,2.7c2.9,0.8,5.6,2.5,8.7,2.4c2.4,0.1,3.8-3.7,1.6-4.9c-2.3-1.2-4.8-1.8-7.1-2.8c-1.4-0.6-3.2-0.7-3.9-2.3
		c-1.7-2.8-3.6-5.5-5.1-8.4c-0.1-5-0.1-10,0-15c5.6-3.4,11-7,16.5-10.5c0.9-0.7,2.3-1.3,2.1-2.7c0.2-2-2.7-3.1-4.1-1.9
		c-4.7,2.9-9.3,5.9-14,8.8c-1.1,0.8-2.5,0.4-3.8,0.5c-3.2-0.1-6.5,0.2-9.7-0.2C431.6,61.7,427.8,57.9,423.8,54.2"/>
	<path id="XMLID_81_" class="st4" d="M444.4,55.3c-3-1.8-7.4,0.6-7.3,4.2c-0.4,3.7,4.2,6.4,7.3,4.2C447.7,62,447.7,56.9,444.4,55.3"
		/>
</g>
<g id="XMLID_41_">
	<g id="XMLID_54_" class="st0">
		<g id="XMLID_55_">
			<defs>
				<rect id="XMLID_56_" x="308.4" y="96.9" width="77.9" height="14.7"/>
			</defs>
			<clipPath id="XMLID_221_">
				<use xlink:href="#XMLID_56_"  style="overflow:visible;"/>
			</clipPath>
			<path id="XMLID_79_" class="st18" d="M333.9,98.5c-3.5-0.2-8,0.3-7.7,1.1c-0.3,0.9,5.1,1.4,8.7,1
				C339,100.1,338.3,98.7,333.9,98.5"/>
			<path id="XMLID_78_" class="st18" d="M359,99.4c0.2-0.5-3.5-0.8-5.2-0.4c-2.4,0.4-4.4,0.9-6.8,1.4c-2.7,0.2-5.6,0.4-8.5,0.6
				c-4.6,0-9.3,0-14,0c-1.9,0-3.2,0.3-4.3,0.6c-3.5,0.8-7.1,1.7-10.7,2.5c-0.9,0.2-2,0.6-0.5,0.9c1.2,0.3,3.5,0.2,4.6-0.1
				c3.6-0.8,7-1.6,10.7-2.5c-0.1,1.3,0.2,2.6-0.1,3.9c-3.4,1.5-7.3,3-10.7,4.5c-0.9,0.3,0.1,0.8,2,0.8c1.8,0.2,3.6-0.1,4.4-0.4
				c3.8-1.5,7.3-3.1,11.2-4.6c0.3,0,1,0,1.3,0c3.2,1.3,6.2,2.6,9.3,3.9c1,0.4,1.6,0.8,3.1,1.1c1.9,0.3,5.2,0,5.4-0.5
				c-0.1-0.3-0.8-0.7-1.6-1c-2.9-1.2-5.7-2.4-8.6-3.6c-0.5-0.2-0.7-0.4-0.6-0.6c0-1.3,0-2.5,0-3.8c3.1-0.2,6.3-0.4,9.4-0.7
				c2.5-0.2,3.8-0.6,5.6-1C356,100.1,358,99.8,359,99.4"/>
			<g id="XMLID_73_" class="st19">
				<g id="XMLID_74_">
					<defs>
						<rect id="XMLID_75_" x="308.4" y="109.6" width="50.6" height="2"/>
					</defs>
					<clipPath id="XMLID_222_">
						<use xlink:href="#XMLID_75_"  style="overflow:visible;"/>
					</clipPath>
					<path id="XMLID_77_" class="st20" d="M333.9,109.6c-3.5,0-8,0-7.7,0.2c-0.3,0.1,5.1,0.2,8.7,0.2
						C339,109.9,338.3,109.6,333.9,109.6"/>
					<path id="XMLID_76_" class="st20" d="M359,109.7c0.2-0.1-3.5-0.1-5.2-0.1c-2.4,0.1-4.4,0.1-6.8,0.2c-2.7,0-5.6,0.1-8.5,0.1
						c-4.6,0-9.3,0-14,0c-1.9,0-3.2,0-4.3,0.1c-3.5,0.1-7.1,0.3-10.7,0.4c-0.9,0-2,0.1-0.5,0.1c1.2,0,3.5,0,4.6,0
						c3.6-0.1,7-0.3,10.7-0.4c-0.1,0.2,0.2,0.4-0.1,0.6c-3.4,0.2-7.3,0.5-10.7,0.7c-0.9,0.1,0.1,0.1,2,0.1c1.8,0,3.6,0,4.4-0.1
						c3.8-0.2,7.3-0.5,11.2-0.7h1.3c3.2,0.2,6.2,0.4,9.3,0.6c1,0.1,1.6,0.1,3.1,0.2c1.9,0.1,5.2,0,5.4-0.1c-0.1-0.1-0.8-0.1-1.6-0.1
						c-2.9-0.2-5.7-0.4-8.6-0.6c-0.5,0-0.7-0.1-0.6-0.1c0-0.2,0-0.4,0-0.6c3.1,0,6.3-0.1,9.4-0.1c2.5,0,3.8-0.1,5.6-0.1
						C356,109.9,358,109.8,359,109.7"/>
				</g>
			</g>
			<g id="XMLID_69_" class="st21">
				<g id="XMLID_70_">
					<defs>
						<rect id="XMLID_71_" x="352.1" y="97.3" width="34.2" height="8.2"/>
					</defs>
					<clipPath id="XMLID_223_">
						<use xlink:href="#XMLID_71_"  style="overflow:visible;"/>
					</clipPath>
					<path id="XMLID_72_" class="st22" d="M367.9,97.3c9.4-0.1,17.6,1.2,18.3,3c1.1,2.9-15.2,5.2-15.2,5.2s-17.8-1.8-18.9-4.7
						C351.5,99,358.5,97.4,367.9,97.3"/>
				</g>
			</g>
			<path id="XMLID_68_" class="st18" d="M367.8,96.9c9.4-0.1,17.6,1.2,18.3,3c1.1,2.9-15.2,5.2-15.2,5.2s-17.8-1.8-18.9-4.7
				C351.3,98.6,358.4,97,367.8,96.9"/>
			<path id="XMLID_60_" class="st18" d="M359.3,100.8c-1,0-1.8,0.2-1.7,0.4c0,0.1,0.2,0.1,0.4,0.2l2.8,0.5l0,0.1
				c0.1,0.2,1,0.3,2,0.3l13.9-0.2c1,0,1.8-0.2,1.7-0.4l0-0.1l2.4-0.6c0.2-0.1,0.3-0.1,0.3-0.2c-0.1-0.2-1-0.3-2-0.3l-2,0
				c-1-0.7-4.5-1.2-8.4-1.2c-3.2,0-5.9,0.5-7,1l-3.5-0.3c-0.4,0-0.8,0-1,0.1c-0.2,0.1,0,0.2,0.4,0.2l3.7,0.3c0,0-0.1,0.1-0.1,0.1
				L359.3,100.8 M362,100.7C362,100.7,362,100.7,362,100.7l0.4,0L362,100.7 M368.8,99.5c3.5,0,6.7,0.4,7.6,1l-0.8,0
				c-0.9-0.6-3.7-1-6.8-0.9c-2.7,0-4.9,0.4-5.7,0.8l-0.7-0.1C363.4,99.9,365.8,99.5,368.8,99.5 M365.7,100.7l-0.6,0
				c0.6-0.3,2-0.6,3.8-0.6c1.9,0,3.6,0.2,4.4,0.5l-0.8,0c-0.7-0.2-2-0.4-3.5-0.4c-1.5,0-2.7,0.2-3.2,0.5L365.7,100.7z M369.2,100.5
				c-0.6,0-1.2,0.1-1.6,0.2l-0.9,0c0.4-0.2,1.3-0.3,2.4-0.3c1.1,0,2.1,0.1,2.6,0.3l-0.9,0C370.4,100.5,369.8,100.5,369.2,100.5
				 M368.9,99.9c-2.1,0-3.8,0.3-4.5,0.7l-0.7-0.1c0.8-0.4,2.7-0.7,5.1-0.8c2.7,0,5.2,0.3,6,0.8l-0.8,0
				C373.3,100.2,371.3,99.9,368.9,99.9 M359.1,101.1c0,0,0.1-0.1,0.3-0.1l1.8,0l0.7,0l0.7,0l0.7,0l0.7,0l0.7,0l0.7,0l0.7,0l0.7,0
				l4.4-0.1l0.7,0l0.7,0l0.7,0l0.7,0l0.7,0l0.7,0l0.7,0l0.7,0l1.8,0c0.2,0,0.4,0,0.4,0.1l-2.7,0.7l0.1,0.2c0,0-0.1,0.1-0.3,0.1
				l-13.9,0.2c-0.2,0-0.4,0-0.4-0.1l-0.1-0.2L359.1,101.1z"/>
			<path id="XMLID_59_" class="st18" d="M374.6,99.2C374.6,99.2,374.6,99.2,374.6,99.2c-0.1,0-0.2,0-0.3,0c-0.2,0-0.4,0-0.4-0.1
				c0,0,0,0,0,0c0,0,0,0,0,0c0.2-0.1-0.1-0.3-0.5-0.4c-0.4-0.2-0.9-0.3-0.5-0.5c0,0,0.2,0,0.3,0c0.2,0,0.4,0,0.4,0.1c0,0,0,0,0,0
				c0,0,0,0,0,0c0,0,0,0,0,0v0c-0.2,0.1,0.1,0.3,0.5,0.4C374.5,98.8,374.9,99,374.6,99.2C374.6,99.2,374.6,99.2,374.6,99.2"/>
			<path id="XMLID_58_" class="st18" d="M365.6,99.3C365.6,99.3,365.6,99.3,365.6,99.3L365.6,99.3c-0.1,0-0.2,0-0.3,0
				c-0.2,0-0.4,0-0.4-0.1c0,0,0,0,0,0c0,0,0,0,0,0c0.2-0.1-0.1-0.3-0.5-0.4c-0.4-0.2-0.9-0.3-0.5-0.5c0,0,0.2-0.1,0.3-0.1
				c0.2,0,0.4,0,0.4,0.1c0,0,0,0,0,0c0,0,0,0,0,0l0,0c-0.2,0.1,0.1,0.3,0.5,0.4C365.5,99,366,99.1,365.6,99.3
				C365.7,99.3,365.7,99.3,365.6,99.3"/>
			<path id="XMLID_57_" class="st18" d="M369.2,98.6C369.2,98.7,369.2,98.7,369.2,98.6L369.2,98.6c-0.1,0-0.2,0-0.3,0
				c-0.2,0-0.4,0-0.4-0.1c0,0,0,0,0,0c0,0,0,0,0,0c0.2-0.1-0.1-0.3-0.5-0.4c-0.4-0.2-0.8-0.3-0.5-0.5c0,0,0.2,0,0.3-0.1
				c0.2,0,0.4,0,0.4,0.1c0,0,0,0,0,0h0c0,0,0,0,0,0l0,0c-0.2,0.1,0.1,0.3,0.5,0.4C369.1,98.3,369.5,98.5,369.2,98.6
				C369.2,98.6,369.2,98.6,369.2,98.6"/>
		</g>
	</g>
	<path id="XMLID_53_" class="st4" d="M333.9,44.1c-3.5-1.3-8,1.5-7.7,5.4c-0.3,4.4,5.1,7.4,8.7,5.1C339,52.5,338.3,45.4,333.9,44.1"
		/>
	<path id="XMLID_52_" class="st4" d="M359,48.7c0.2-2.6-3.5-4.1-5.2-2.2c-2.4,2.2-4.4,4.8-6.8,7c-2.7,1.2-5.6,2.2-8.5,3
		c-4.6,0.2-9.3-0.1-14,0.1c-1.9,0-3.2,1.7-4.3,3c-3.5,4.3-7.1,8.5-10.7,12.8c-0.9,1.2-2,3.2-0.5,4.4c1.2,1.4,3.5,0.9,4.6-0.4
		c3.6-4.2,7-8.4,10.7-12.6c-0.1,6.7,0.2,13.4-0.1,20.1c-3.4,7.7-7.3,15.2-10.7,22.9c-0.9,1.7,0.1,3.9,2,4.3c1.8,0.8,3.6-0.7,4.4-2.3
		c3.8-7.8,7.3-15.8,11.2-23.6c0.3,0,1,0,1.3,0c3.2,6.6,6.2,13.3,9.3,19.9c1,1.9,1.6,4.1,3.1,5.6c1.9,1.7,5.2,0.1,5.4-2.4
		c-0.1-1.7-0.8-3.4-1.6-4.9c-2.9-6.2-5.7-12.3-8.6-18.5c-0.5-0.9-0.7-1.9-0.6-2.9c0-6.5,0-13,0-19.5c3.1-1.2,6.3-2.3,9.4-3.5
		c2.5-0.8,3.8-3.2,5.6-4.9C356,52.6,358,51,359,48.7"/>
	<g id="XMLID_48_" class="st5">
		<g id="XMLID_49_">
			<defs>
				<rect id="XMLID_50_" x="352.1" y="38.1" width="34.2" height="42.2"/>
			</defs>
			<clipPath id="XMLID_224_">
				<use xlink:href="#XMLID_50_"  style="overflow:visible;"/>
			</clipPath>
			<path id="XMLID_51_" class="st23" d="M367.9,38.2c9.4-0.7,17.6,6.3,18.3,15.6c1.1,14.7-15.2,26.6-15.2,26.6s-17.8-9-18.9-24
				C351.5,47,358.5,38.9,367.9,38.2"/>
		</g>
	</g>
	<path id="XMLID_47_" class="st7" d="M367.8,36.1c9.4-0.7,17.6,6.3,18.3,15.6c1.1,14.7-15.2,26.6-15.2,26.6s-17.8-9-18.9-24
		C351.3,45,358.4,36.8,367.8,36.1"/>
	<g id="XMLID_42_">
		<path id="XMLID_46_" class="st8" d="M368.8,59.7l4.5-7.8l2.7-0.6l7.5,5c-1.1,1.1-2.4,2.1-3.9,2.8l1.4,5.7c0.2,0.7-0.3,1.4-1,1.6
			c-0.7,0.2-1.4-0.3-1.6-1l-1.3-5.4c-0.1,0-0.3,0.1-0.4,0.1c-0.1,0-0.3,0-0.4,0.1l1.3,5.4c0.2,0.7-0.3,1.4-1,1.6
			c-0.7,0.2-1.4-0.3-1.6-1l-1.3-5.7C371.9,60.5,370.3,60.2,368.8,59.7"/>
		<path id="XMLID_45_" class="st8" d="M379.4,51.8c-0.2,0.1-0.5,0-0.7-0.1l-2.8-1.7c-0.4,0.4-0.9,0.6-1.5,0.8
			c-0.6,0.1-1.2,0.1-1.7,0l-1.8,2.8c-0.1,0.2-0.3,0.3-0.5,0.4c-0.2,0-0.5,0-0.7-0.1c-0.4-0.3-0.6-0.8-0.3-1.2l1.7-2.8
			c-0.4-0.4-0.7-0.9-0.8-1.5c-0.4-1.8,0.7-3.6,2.5-4c1.8-0.4,3.6,0.7,4,2.5c0.1,0.6,0.1,1.2-0.1,1.7l2.8,1.7
			c0.4,0.3,0.5,0.8,0.3,1.2C379.8,51.6,379.6,51.7,379.4,51.8"/>
		<path id="XMLID_44_" class="st8" d="M361.2,53.8c-1.8,0.4-3.6-0.7-4-2.5c-0.4-1.8,0.7-3.6,2.5-4c1.8-0.4,3.6,0.7,4,2.5
			C364.1,51.5,362.9,53.3,361.2,53.8"/>
		<path id="XMLID_43_" class="st8" d="M357.3,60.2c-0.5-2.2,0.4-4.4,2.2-5.6c0.6,0.2,1.2,0.2,1.8,0.1c0.6-0.1,1.2-0.5,1.6-0.9
			c2.1,0.2,4,1.8,4.5,4c0.3,1.2,0.1,2.4-0.4,3.4l1.8,7.5c0,0.1,0,0.2-0.2,0.3l-3.2,0.7c-0.1,0-0.2,0-0.3-0.2l-1.3-5.6
			c-0.1,0-0.2,0.1-0.4,0.1c-0.1,0-0.3,0.1-0.4,0.1l1.3,5.6c0,0.1,0,0.2-0.2,0.3l-3.2,0.7c-0.1,0-0.2,0-0.3-0.2l-1.8-7.5
			C358.3,62.4,357.6,61.4,357.3,60.2"/>
	</g>
</g>
<g id="XMLID_2_">
	<path id="XMLID_40_" class="st24" d="M272.3,41.6c0.1,0.1,0.2,0.2,0.2,0.4c-3.8,5.9-8,11.5-12.1,17.3c-3.6,0-7.3,0-10.9,0
		c-4.4-5.7-8.4-11.7-12.8-17.4c-0.6-0.4-1.3-0.9-2.2-1.4c-1-0.6-1.8-0.8-2.4-0.9c-0.5,0.4-1.2,1-1.8,1.4c-0.2,0.8-0.1,1.7-0.1,2.3
		c4.7,8.7,11.3,16.2,16.7,24.5c-0.1,5.1,0.2,10.1-0.1,15.1c-2.4,9.1-7.2,17.6-8.9,26.9c-0.4,3.4,4.7,4,6,1.3
		c3.7-7,6.2-14.6,9.3-21.9c0.8,0.1,2.5,0.2,3.3,0.3c2.9,7.1,5.7,14.4,9.3,21.2c1,2.1,3.3,1.8,5.2,2.1c0.5-1.7,1.7-3.6,0.9-5.4
		c-2.5-6.7-5.3-13.3-7.9-20c-2.9-6.1-1-13-1.6-19.5c5.1-8.1,10.8-15.7,15.8-23.9c1.2-1.5,0.5-3.1-0.1-4.7c-0.1,0-0.2,0-0.3-0.1
		C275.1,38.3,273.2,40.3,272.3,41.6"/>
	<g id="XMLID_36_" class="st5">
		<g id="XMLID_37_">
			<defs>
				<rect id="XMLID_38_" x="226.6" y="8.6" width="51.9" height="44.9"/>
			</defs>
			<clipPath id="XMLID_225_">
				<use xlink:href="#XMLID_38_"  style="overflow:visible;"/>
			</clipPath>
			<path id="XMLID_39_" class="st25" d="M276.4,21.5c-5.2-11.1-18.4-16-29.4-10.8c-17.4,8.2-20.4,34.2-20.4,34.2s21.6,14.5,39.3,6.2
				C276.9,45.9,281.6,32.7,276.4,21.5"/>
		</g>
	</g>
	<path id="XMLID_35_" class="st7" d="M278.7,20.4c-5.2-11.1-18.4-16-29.4-10.8c-17.4,8.2-20.4,34.2-20.4,34.2s21.6,14.5,39.3,6.2
		C279.3,44.7,284,31.6,278.7,20.4"/>
	<path id="XMLID_30_" class="st8" d="M265,38.6c-0.4-0.9-1.1-1.7-1.8-2.3l1.4-2.4l2.8-1.3l1.6,1.8c0.3,0.3,0.7,0.3,1,0
		c0.3-0.3,0.3-0.7,0.1-1l-2.5-2.7c-0.3-0.3-0.7-0.3-1,0c0,0,0,0,0,0l-2.3,1.1l-3.7-7.9l1.7-1.9l0.9,2c0.2,0.3,0.6,0.5,0.9,0.3
		c0.3-0.2,0.5-0.6,0.3-0.9l-2.4-5c-0.2-0.3-0.6-0.5-0.9-0.3c-0.3,0.2-0.5,0.6-0.3,0.9l0.5,1.1c-0.1,0.1-0.2,0.1-0.3,0.3l-6.8,7.8
		c-0.1,0-0.1,0-0.2,0l-0.2-0.5c2.6-1.8,3.6-5.3,2.2-8.3c-1.6-3.3-5.5-4.8-8.8-3.2c-3.3,1.6-4.8,5.5-3.2,8.8c1.4,3,4.9,4.5,8,3.5
		l0.2,0.4c-0.6,0.7-0.8,1.8-0.4,2.7c0.6,1.2,2.1,1.8,3.3,1.2c0.4-0.2,0.8-0.5,1-0.9l6.2,1.9l-0.9,1.5c-1.6-0.6-3.5-0.6-5.2,0.2
		c-3.3,1.6-4.8,5.5-3.2,8.9c1.6,3.3,5.5,4.8,8.9,3.2C265.1,45.9,266.5,42,265,38.6 M261.8,31.4l-5.5-1.7c0-0.1-0.1-0.2-0.1-0.3
		c-0.1-0.1-0.1-0.2-0.2-0.3l3.1-3.5L261.8,31.4z M245.8,24.1c-1.1-2.3-0.1-5,2.2-6.1c2.3-1.1,5-0.1,6.1,2.2c0.9,1.9,0.3,4.2-1.2,5.4
		l-1.7-3.5c-0.2-0.5-0.9-0.7-1.4-0.5c-0.5,0.2-0.7,0.9-0.5,1.4l1.7,3.6C248.9,27.1,246.7,26.1,245.8,24.1 M254.8,43.4
		c-1.1-2.3-0.1-5,2.2-6.1c1.1-0.5,2.2-0.5,3.3-0.2l-2.6,4.4c-0.2,0.3-0.2,0.7,0,1c0.1,0.2,0.2,0.3,0.4,0.5c0.5,0.3,1.1,0.1,1.4-0.4
		l2.6-4.4c0.4,0.4,0.8,0.8,1,1.4c1.1,2.3,0.1,5-2.2,6.1C258.6,46.7,255.9,45.7,254.8,43.4"/>
	<path id="XMLID_29_" class="st24" d="M254,58.7c4,1.1,7.8-2.9,7-6.8c0-3.9-4.7-6.4-8.1-4.9C247,48.7,248.1,58.1,254,58.7"/>
	<g id="XMLID_3_" class="st0">
		<g id="XMLID_4_">
			<defs>
				<rect id="XMLID_5_" x="236.4" y="99.2" width="40.5" height="14"/>
			</defs>
			<clipPath id="XMLID_226_">
				<use xlink:href="#XMLID_5_"  style="overflow:visible;"/>
			</clipPath>
			<path id="XMLID_28_" class="st26" d="M260.5,100.7c-3.4-0.2-7.6,0.3-7.3,1c-0.3,0.8,4.8,1.4,8.3,1
				C265.4,102.2,264.8,100.9,260.5,100.7"/>
			<path id="XMLID_27_" class="st26" d="M284.4,101.5c0.2-0.5-3.3-0.8-4.9-0.4c-2.2,0.4-4.2,0.9-6.4,1.3c-2.6,0.2-5.3,0.4-8,0.5
				c-4.4,0-8.8,0-13.2,0c-1.8,0-3,0.3-4.1,0.6c-3.4,0.8-6.8,1.6-10.1,2.4c-0.8,0.2-1.9,0.6-0.5,0.8c1.1,0.3,3.3,0.2,4.3-0.1
				c3.4-0.8,6.7-1.6,10.1-2.3c-0.1,1.2,0.2,2.5-0.1,3.7c-3.3,1.4-6.9,2.8-10.1,4.2c-0.9,0.3,0.1,0.7,1.9,0.8
				c1.7,0.1,3.5-0.1,4.2-0.4c3.6-1.4,6.9-2.9,10.6-4.4c0.3,0,0.9,0,1.2,0c3,1.2,5.8,2.5,8.8,3.7c0.9,0.4,1.5,0.8,3,1
				c1.8,0.3,4.9,0,5.1-0.4c-0.1-0.3-0.8-0.6-1.5-0.9c-2.7-1.1-5.4-2.3-8.2-3.4c-0.4-0.2-0.6-0.3-0.6-0.5c0-1.2,0-2.4,0-3.6
				c3-0.2,5.9-0.4,8.9-0.6c2.3-0.2,3.6-0.6,5.3-0.9C281.5,102.2,283.4,101.9,284.4,101.5"/>
			<g id="XMLID_22_" class="st27">
				<g id="XMLID_23_">
					<defs>
						<rect id="XMLID_24_" x="236.4" y="111.2" width="48" height="1.9"/>
					</defs>
					<clipPath id="XMLID_227_">
						<use xlink:href="#XMLID_24_"  style="overflow:visible;"/>
					</clipPath>
					<path id="XMLID_26_" class="st28" d="M260.5,111.2c-3.4,0-7.6,0-7.3,0.2c-0.3,0.1,4.8,0.2,8.3,0.1
						C265.4,111.5,264.8,111.3,260.5,111.2"/>
					<path id="XMLID_25_" class="st28" d="M284.4,111.4c0.2-0.1-3.3-0.1-4.9-0.1c-2.2,0.1-4.2,0.1-6.4,0.2c-2.6,0-5.3,0.1-8,0.1
						c-4.4,0-8.8,0-13.2,0c-1.8,0-3,0-4.1,0.1c-3.4,0.1-6.8,0.2-10.1,0.4c-0.8,0-1.9,0.1-0.5,0.1c1.1,0,3.3,0,4.3,0
						c3.4-0.1,6.7-0.2,10.1-0.4c-0.1,0.2,0.2,0.4-0.1,0.6c-3.3,0.2-6.9,0.4-10.1,0.7c-0.9,0,0.1,0.1,1.9,0.1c1.7,0,3.5,0,4.2-0.1
						c3.6-0.2,6.9-0.5,10.6-0.7h1.2c3,0.2,5.8,0.4,8.8,0.6c0.9,0.1,1.5,0.1,3,0.2c1.8,0,4.9,0,5.1-0.1c-0.1,0-0.8-0.1-1.5-0.1
						c-2.7-0.2-5.4-0.4-8.2-0.5c-0.4,0-0.6-0.1-0.6-0.1c0-0.2,0-0.4,0-0.6c3,0,5.9-0.1,8.9-0.1c2.3,0,3.6-0.1,5.3-0.1
						C281.5,111.5,283.4,111.4,284.4,111.4"/>
				</g>
			</g>
			<g id="XMLID_18_" class="st29">
				<g id="XMLID_19_">
					<defs>
						<rect id="XMLID_20_" x="277.8" y="99.6" width="32.4" height="7.8"/>
					</defs>
					<clipPath id="XMLID_228_">
						<use xlink:href="#XMLID_20_"  style="overflow:visible;"/>
					</clipPath>
					<path id="XMLID_21_" class="st30" d="M292.8,99.6c8.9-0.1,16.7,1.2,17.4,2.9c1,2.7-14.4,4.9-14.4,4.9s-16.9-1.7-17.9-4.4
						C277.2,101.2,283.9,99.7,292.8,99.6"/>
				</g>
			</g>
			<path id="XMLID_17_" class="st26" d="M292.7,99.2c8.9-0.1,16.7,1.2,17.4,2.9c1,2.7-14.4,4.9-14.4,4.9s-16.9-1.7-18-4.4
				C277.1,100.8,283.8,99.3,292.7,99.2"/>
			<path id="XMLID_9_" class="st26" d="M284.7,102.9c-1,0-1.7,0.2-1.6,0.4c0,0.1,0.2,0.1,0.4,0.2l2.6,0.5l0,0.1
				c0.1,0.2,0.9,0.3,1.9,0.3l13.2-0.2c1,0,1.7-0.2,1.6-0.4l0-0.1l2.2-0.6c0.2-0.1,0.3-0.1,0.3-0.2c-0.1-0.2-0.9-0.3-1.9-0.3l-1.9,0
				c-0.9-0.7-4.2-1.2-8-1.1c-3.1,0-5.6,0.4-6.6,1l-3.3-0.3c-0.4,0-0.8,0-0.9,0.1c-0.1,0.1,0,0.1,0.4,0.2l3.5,0.3
				c0,0-0.1,0.1-0.1,0.1L284.7,102.9 M287.2,102.8C287.2,102.8,287.2,102.8,287.2,102.8l0.4,0L287.2,102.8 M293.6,101.6
				c3.4,0,6.4,0.4,7.2,1l-0.7,0c-0.8-0.5-3.5-0.9-6.5-0.9c-2.5,0-4.6,0.4-5.4,0.8l-0.6-0.1C288.5,102,290.8,101.7,293.6,101.6
				 M290.7,102.8l-0.5,0c0.5-0.3,1.9-0.5,3.6-0.5c1.8,0,3.4,0.2,4.1,0.5l-0.7,0c-0.6-0.2-1.9-0.4-3.3-0.4c-1.4,0-2.6,0.2-3,0.5
				L290.7,102.8z M294,102.6c-0.6,0-1.1,0.1-1.5,0.2l-0.9,0c0.4-0.2,1.3-0.3,2.3-0.3c1,0,2,0.1,2.5,0.2l-0.8,0
				C295.2,102.6,294.6,102.6,294,102.6 M293.8,102c-2,0-3.6,0.3-4.2,0.6l-0.6-0.1c0.7-0.4,2.6-0.7,4.8-0.7c2.6,0,4.9,0.3,5.7,0.7
				l-0.7,0C298,102.3,296,102,293.8,102 M284.4,103.2c0,0,0.1-0.1,0.3-0.1l1.7,0l0.7,0l0.7,0l0.7,0l0.7,0l0.7,0l0.7,0l0.7,0l0.7,0
				l4.2-0.1l0.7,0l0.7,0l0.7,0l0.7,0l0.7,0l0.7,0l0.7,0l0.7,0l1.7,0c0.2,0,0.4,0,0.4,0.1l-2.5,0.7l0.1,0.2c0,0-0.1,0.1-0.3,0.1
				l-13.2,0.2c-0.2,0-0.4,0-0.4-0.1l-0.1-0.2L284.4,103.2z"/>
			<path id="XMLID_8_" class="st26" d="M299.1,101.4C299.1,101.4,299.1,101.4,299.1,101.4c-0.1,0-0.2,0-0.3,0c-0.2,0-0.4,0-0.4-0.1
				c0,0,0,0,0,0c0,0,0,0,0,0c0.2-0.1-0.1-0.2-0.4-0.4c-0.4-0.1-0.8-0.3-0.5-0.5c0,0,0.2,0,0.3,0c0.2,0,0.3,0,0.4,0.1c0,0,0,0,0,0
				c0,0,0,0,0,0c0,0,0,0,0,0l0,0c-0.2,0.1,0.1,0.2,0.4,0.4C299,101,299.4,101.2,299.1,101.4C299.1,101.4,299.1,101.4,299.1,101.4"/>
			<path id="XMLID_7_" class="st26" d="M290.7,101.5C290.7,101.5,290.7,101.5,290.7,101.5L290.7,101.5c-0.1,0-0.2,0-0.3,0
				c-0.2,0-0.4,0-0.4-0.1c0,0,0,0,0,0c0,0,0,0,0,0c0.2-0.1-0.1-0.3-0.4-0.4c-0.4-0.1-0.8-0.3-0.5-0.5c0,0,0.2,0,0.3,0
				c0.2,0,0.4,0,0.4,0.1c0,0,0,0,0,0c0,0,0,0,0,0l0,0c-0.2,0.1,0.1,0.2,0.4,0.4C290.5,101.1,291,101.3,290.7,101.5
				C290.7,101.5,290.7,101.5,290.7,101.5"/>
			<path id="XMLID_6_" class="st26" d="M294,100.8C294,100.8,294,100.9,294,100.8L294,100.8c-0.1,0-0.2,0-0.3,0
				c-0.2,0-0.4,0-0.4-0.1c0,0,0,0,0,0c0,0,0,0,0,0c0.2-0.1-0.1-0.3-0.4-0.4c-0.4-0.2-0.8-0.3-0.5-0.5c0,0,0.2,0,0.3,0
				c0.2,0,0.4,0,0.4,0.1c0,0,0,0,0,0h0c0,0,0,0,0,0l0,0c-0.2,0.1,0.1,0.2,0.4,0.4C293.9,100.5,294.3,100.7,294,100.8
				C294,100.8,294,100.8,294,100.8"/>
		</g>
	</g>
</g>
</svg>
